solid exported
	facet normal 0 0 -1
		outer loop
			vertex -165.10000610351562 -38.099998474121094 0
			vertex -165.10000610351562 38.099998474121094 0
			vertex 165.10000610351562 38.099998474121094 0
		endloop
	endfacet
	facet normal 0 0 -1
		outer loop
			vertex -165.10000610351562 -38.099998474121094 0
			vertex 165.10000610351562 38.099998474121094 0
			vertex 165.10000610351562 -38.099998474121094 0
		endloop
	endfacet
	facet normal 0 -1 0
		outer loop
			vertex -165.10000610351562 -38.099998474121094 0
			vertex 165.10000610351562 -38.099998474121094 0
			vertex 165.10000610351562 -38.099998474121094 88.9000015258789
		endloop
	endfacet
	facet normal 0 -1 0
		outer loop
			vertex -165.10000610351562 -38.099998474121094 0
			vertex 165.10000610351562 -38.099998474121094 88.9000015258789
			vertex -165.10000610351562 -38.099998474121094 88.9000015258789
		endloop
	endfacet
	facet normal 1 0 0
		outer loop
			vertex 165.10000610351562 -38.099998474121094 0
			vertex 165.10000610351562 38.099998474121094 0
			vertex 165.10000610351562 38.099998474121094 88.9000015258789
		endloop
	endfacet
	facet normal 1 0 0
		outer loop
			vertex 165.10000610351562 -38.099998474121094 0
			vertex 165.10000610351562 38.099998474121094 88.9000015258789
			vertex 165.10000610351562 -38.099998474121094 88.9000015258789
		endloop
	endfacet
	facet normal 0 1 0
		outer loop
			vertex 165.10000610351562 38.099998474121094 0
			vertex -165.10000610351562 38.099998474121094 0
			vertex -165.10000610351562 38.099998474121094 88.9000015258789
		endloop
	endfacet
	facet normal 0 1 0
		outer loop
			vertex 165.10000610351562 38.099998474121094 0
			vertex -165.10000610351562 38.099998474121094 88.9000015258789
			vertex 165.10000610351562 38.099998474121094 88.9000015258789
		endloop
	endfacet
	facet normal -1 0 0
		outer loop
			vertex -165.10000610351562 38.099998474121094 0
			vertex -165.10000610351562 -38.099998474121094 0
			vertex -165.10000610351562 -38.099998474121094 88.9000015258789
		endloop
	endfacet
	facet normal -1 0 0
		outer loop
			vertex -165.10000610351562 38.099998474121094 0
			vertex -165.10000610351562 -38.099998474121094 88.9000015258789
			vertex -165.10000610351562 38.099998474121094 88.9000015258789
		endloop
	endfacet
	facet normal 0 0 1
		outer loop
			vertex -162.5 -35.5 2.5999999046325684
			vertex 162.5 -35.5 2.5999999046325684
			vertex 162.5 35.5 2.5999999046325684
		endloop
	endfacet
	facet normal 0 0 1
		outer loop
			vertex -162.5 -35.5 2.5999999046325684
			vertex 162.5 35.5 2.5999999046325684
			vertex -162.5 35.5 2.5999999046325684
		endloop
	endfacet
	facet normal 0 1 0
		outer loop
			vertex -162.5 -35.5 2.5999999046325684
			vertex -162.5 -35.5 88.9000015258789
			vertex 162.5 -35.5 88.9000015258789
		endloop
	endfacet
	facet normal 0 1 0
		outer loop
			vertex -162.5 -35.5 2.5999999046325684
			vertex 162.5 -35.5 88.9000015258789
			vertex 162.5 -35.5 2.5999999046325684
		endloop
	endfacet
	facet normal -1 0 0
		outer loop
			vertex 162.5 -35.5 2.5999999046325684
			vertex 162.5 -35.5 88.9000015258789
			vertex 162.5 35.5 88.9000015258789
		endloop
	endfacet
	facet normal -1 0 0
		outer loop
			vertex 162.5 -35.5 2.5999999046325684
			vertex 162.5 35.5 88.9000015258789
			vertex 162.5 35.5 2.5999999046325684
		endloop
	endfacet
	facet normal 0 -1 0
		outer loop
			vertex 162.5 35.5 2.5999999046325684
			vertex 162.5 35.5 88.9000015258789
			vertex -162.5 35.5 88.9000015258789
		endloop
	endfacet
	facet normal 0 -1 0
		outer loop
			vertex 162.5 35.5 2.5999999046325684
			vertex -162.5 35.5 88.9000015258789
			vertex -162.5 35.5 2.5999999046325684
		endloop
	endfacet
	facet normal 1 0 0
		outer loop
			vertex -162.5 35.5 2.5999999046325684
			vertex -162.5 35.5 88.9000015258789
			vertex -162.5 -35.5 88.9000015258789
		endloop
	endfacet
	facet normal 1 0 0
		outer loop
			vertex -162.5 35.5 2.5999999046325684
			vertex -162.5 -35.5 88.9000015258789
			vertex -162.5 -35.5 2.5999999046325684
		endloop
	endfacet
	facet normal 0 0 1
		outer loop
			vertex -165.10000610351562 -38.099998474121094 88.9000015258789
			vertex 165.10000610351562 -38.099998474121094 88.9000015258789
			vertex 162.5 -35.5 88.9000015258789
		endloop
	endfacet
	facet normal 0 0 1
		outer loop
			vertex -165.10000610351562 -38.099998474121094 88.9000015258789
			vertex 162.5 -35.5 88.9000015258789
			vertex -162.5 -35.5 88.9000015258789
		endloop
	endfacet
	facet normal 0 0 1
		outer loop
			vertex 165.10000610351562 -38.099998474121094 88.9000015258789
			vertex 165.10000610351562 38.099998474121094 88.9000015258789
			vertex 162.5 35.5 88.9000015258789
		endloop
	endfacet
	facet normal 0 0 1
		outer loop
			vertex 165.10000610351562 -38.099998474121094 88.9000015258789
			vertex 162.5 35.5 88.9000015258789
			vertex 162.5 -35.5 88.9000015258789
		endloop
	endfacet
	facet normal 0 0 1
		outer loop
			vertex 165.10000610351562 38.099998474121094 88.9000015258789
			vertex -165.10000610351562 38.099998474121094 88.9000015258789
			vertex -162.5 35.5 88.9000015258789
		endloop
	endfacet
	facet normal 0 0 1
		outer loop
			vertex 165.10000610351562 38.099998474121094 88.9000015258789
			vertex -162.5 35.5 88.9000015258789
			vertex 162.5 35.5 88.9000015258789
		endloop
	endfacet
	facet normal 0 0 1
		outer loop
			vertex -165.10000610351562 38.099998474121094 88.9000015258789
			vertex -165.10000610351562 -38.099998474121094 88.9000015258789
			vertex -162.5 -35.5 88.9000015258789
		endloop
	endfacet
	facet normal 0 0 1
		outer loop
			vertex -165.10000610351562 38.099998474121094 88.9000015258789
			vertex -162.5 -35.5 88.9000015258789
			vertex -162.5 35.5 88.9000015258789
		endloop
	endfacet
endsolid exported
