ISO-10303-21;
HEADER;
/* Generated by software containing ST-Developer
 * from STEP Tools, Inc. (www.steptools.com) 
 */
/* OPTION: using custom renumber hook */

FILE_DESCRIPTION(
/* description */ ('STEP AP242',
'CAx-IF Rec.Pracs.---Representation and Presentation of Product Manufa
cturing Information (PMI)---4.0---2014-10-13',
'CAx-IF Rec.Pracs.---3D Tessellated Geometry---0.4---2014-09-14','2;1'),

/* implementation_level */ '2;1');

FILE_NAME(
/* name */ '687a9dbba497fa486331f97e',
/* time_stamp */ '2025-07-18T19:17:16Z',
/* author */ (''),
/* organization */ (''),
/* preprocessor_version */ 'ST-DEVELOPER v20',
/* originating_system */ 'ONSHAPE BY PTC INC, 1.201',
/* authorisation */ '  ');

FILE_SCHEMA (('AP242_MANAGED_MODEL_BASED_3D_ENGINEERING_MIM_LF { 1 0 10303 442 1 1 4 }'));
ENDSEC;

DATA;
#10=SHAPE_REPRESENTATION_RELATIONSHIP('','',#407,#11);
#11=ADVANCED_BREP_SHAPE_REPRESENTATION('',(#405),#657);
#12=CYLINDRICAL_SURFACE('',#427,0.001875);
#13=CYLINDRICAL_SURFACE('',#430,0.001875);
#14=CYLINDRICAL_SURFACE('',#433,0.001875);
#15=CYLINDRICAL_SURFACE('',#434,0.001875);
#16=CONICAL_SURFACE('',#425,0.00392,0.785398163397448);
#17=CONICAL_SURFACE('',#428,0.00392,0.785398163397448);
#18=CONICAL_SURFACE('',#431,0.00392,0.785398163397448);
#19=CONICAL_SURFACE('',#436,0.00392,0.785398163397448);
#20=CIRCLE('',#412,0.00392);
#21=CIRCLE('',#413,0.00392);
#22=CIRCLE('',#414,0.00392);
#23=CIRCLE('',#415,0.00392);
#24=CIRCLE('',#417,0.001875);
#25=CIRCLE('',#418,0.001875);
#26=CIRCLE('',#419,0.001875);
#27=CIRCLE('',#420,0.001875);
#28=CIRCLE('',#426,0.001875);
#29=CIRCLE('',#429,0.001875);
#30=CIRCLE('',#432,0.001875);
#31=CIRCLE('',#435,0.001875);
#32=ORIENTED_EDGE('',*,*,#128,.T.);
#33=ORIENTED_EDGE('',*,*,#129,.T.);
#34=ORIENTED_EDGE('',*,*,#130,.F.);
#35=ORIENTED_EDGE('',*,*,#131,.T.);
#36=ORIENTED_EDGE('',*,*,#132,.T.);
#37=ORIENTED_EDGE('',*,*,#133,.T.);
#38=ORIENTED_EDGE('',*,*,#134,.F.);
#39=ORIENTED_EDGE('',*,*,#135,.F.);
#40=ORIENTED_EDGE('',*,*,#136,.T.);
#41=ORIENTED_EDGE('',*,*,#137,.T.);
#42=ORIENTED_EDGE('',*,*,#138,.T.);
#43=ORIENTED_EDGE('',*,*,#139,.T.);
#44=ORIENTED_EDGE('',*,*,#140,.F.);
#45=ORIENTED_EDGE('',*,*,#141,.T.);
#46=ORIENTED_EDGE('',*,*,#142,.T.);
#47=ORIENTED_EDGE('',*,*,#143,.F.);
#48=ORIENTED_EDGE('',*,*,#144,.F.);
#49=ORIENTED_EDGE('',*,*,#145,.T.);
#50=ORIENTED_EDGE('',*,*,#146,.T.);
#51=ORIENTED_EDGE('',*,*,#147,.T.);
#52=ORIENTED_EDGE('',*,*,#148,.F.);
#53=ORIENTED_EDGE('',*,*,#149,.F.);
#54=ORIENTED_EDGE('',*,*,#150,.F.);
#55=ORIENTED_EDGE('',*,*,#151,.F.);
#56=ORIENTED_EDGE('',*,*,#152,.F.);
#57=ORIENTED_EDGE('',*,*,#135,.T.);
#58=ORIENTED_EDGE('',*,*,#153,.T.);
#59=ORIENTED_EDGE('',*,*,#154,.T.);
#60=ORIENTED_EDGE('',*,*,#155,.F.);
#61=ORIENTED_EDGE('',*,*,#156,.F.);
#62=ORIENTED_EDGE('',*,*,#157,.F.);
#63=ORIENTED_EDGE('',*,*,#158,.F.);
#64=ORIENTED_EDGE('',*,*,#154,.F.);
#65=ORIENTED_EDGE('',*,*,#159,.T.);
#66=ORIENTED_EDGE('',*,*,#143,.T.);
#67=ORIENTED_EDGE('',*,*,#160,.F.);
#68=ORIENTED_EDGE('',*,*,#157,.T.);
#69=ORIENTED_EDGE('',*,*,#161,.F.);
#70=ORIENTED_EDGE('',*,*,#162,.T.);
#71=ORIENTED_EDGE('',*,*,#163,.T.);
#72=ORIENTED_EDGE('',*,*,#147,.F.);
#73=ORIENTED_EDGE('',*,*,#164,.F.);
#74=ORIENTED_EDGE('',*,*,#165,.F.);
#75=ORIENTED_EDGE('',*,*,#161,.T.);
#76=ORIENTED_EDGE('',*,*,#156,.T.);
#77=ORIENTED_EDGE('',*,*,#166,.F.);
#78=ORIENTED_EDGE('',*,*,#162,.F.);
#79=ORIENTED_EDGE('',*,*,#165,.T.);
#80=ORIENTED_EDGE('',*,*,#167,.T.);
#81=ORIENTED_EDGE('',*,*,#131,.F.);
#82=ORIENTED_EDGE('',*,*,#168,.T.);
#83=ORIENTED_EDGE('',*,*,#136,.F.);
#84=ORIENTED_EDGE('',*,*,#168,.F.);
#85=ORIENTED_EDGE('',*,*,#151,.T.);
#86=ORIENTED_EDGE('',*,*,#169,.T.);
#87=ORIENTED_EDGE('',*,*,#137,.F.);
#88=ORIENTED_EDGE('',*,*,#169,.F.);
#89=ORIENTED_EDGE('',*,*,#150,.T.);
#90=ORIENTED_EDGE('',*,*,#170,.T.);
#91=ORIENTED_EDGE('',*,*,#138,.F.);
#92=ORIENTED_EDGE('',*,*,#170,.F.);
#93=ORIENTED_EDGE('',*,*,#149,.T.);
#94=ORIENTED_EDGE('',*,*,#171,.F.);
#95=ORIENTED_EDGE('',*,*,#148,.T.);
#96=ORIENTED_EDGE('',*,*,#171,.T.);
#97=ORIENTED_EDGE('',*,*,#139,.F.);
#98=ORIENTED_EDGE('',*,*,#142,.F.);
#99=ORIENTED_EDGE('',*,*,#172,.T.);
#100=ORIENTED_EDGE('',*,*,#128,.F.);
#101=ORIENTED_EDGE('',*,*,#167,.F.);
#102=ORIENTED_EDGE('',*,*,#164,.T.);
#103=ORIENTED_EDGE('',*,*,#155,.T.);
#104=ORIENTED_EDGE('',*,*,#158,.T.);
#105=ORIENTED_EDGE('',*,*,#130,.T.);
#106=ORIENTED_EDGE('',*,*,#173,.T.);
#107=ORIENTED_EDGE('',*,*,#140,.T.);
#108=ORIENTED_EDGE('',*,*,#163,.F.);
#109=ORIENTED_EDGE('',*,*,#166,.T.);
#110=ORIENTED_EDGE('',*,*,#134,.T.);
#111=ORIENTED_EDGE('',*,*,#174,.T.);
#112=ORIENTED_EDGE('',*,*,#144,.T.);
#113=ORIENTED_EDGE('',*,*,#159,.F.);
#114=ORIENTED_EDGE('',*,*,#153,.F.);
#115=ORIENTED_EDGE('',*,*,#146,.F.);
#116=ORIENTED_EDGE('',*,*,#175,.T.);
#117=ORIENTED_EDGE('',*,*,#132,.F.);
#118=ORIENTED_EDGE('',*,*,#152,.T.);
#119=ORIENTED_EDGE('',*,*,#160,.T.);
#120=ORIENTED_EDGE('',*,*,#173,.F.);
#121=ORIENTED_EDGE('',*,*,#129,.F.);
#122=ORIENTED_EDGE('',*,*,#172,.F.);
#123=ORIENTED_EDGE('',*,*,#141,.F.);
#124=ORIENTED_EDGE('',*,*,#175,.F.);
#125=ORIENTED_EDGE('',*,*,#145,.F.);
#126=ORIENTED_EDGE('',*,*,#174,.F.);
#127=ORIENTED_EDGE('',*,*,#133,.F.);
#128=EDGE_CURVE('',#176,#177,#212,.T.);
#129=EDGE_CURVE('',#177,#178,#213,.T.);
#130=EDGE_CURVE('',#179,#178,#214,.T.);
#131=EDGE_CURVE('',#179,#176,#215,.T.);
#132=EDGE_CURVE('',#180,#181,#216,.T.);
#133=EDGE_CURVE('',#181,#182,#217,.T.);
#134=EDGE_CURVE('',#183,#182,#218,.T.);
#135=EDGE_CURVE('',#180,#183,#219,.T.);
#136=EDGE_CURVE('',#184,#184,#20,.T.);
#137=EDGE_CURVE('',#185,#185,#21,.T.);
#138=EDGE_CURVE('',#186,#186,#22,.T.);
#139=EDGE_CURVE('',#187,#187,#23,.T.);
#140=EDGE_CURVE('',#188,#189,#220,.T.);
#141=EDGE_CURVE('',#188,#190,#221,.T.);
#142=EDGE_CURVE('',#190,#191,#222,.T.);
#143=EDGE_CURVE('',#192,#191,#223,.T.);
#144=EDGE_CURVE('',#193,#192,#224,.T.);
#145=EDGE_CURVE('',#193,#194,#225,.T.);
#146=EDGE_CURVE('',#194,#195,#226,.T.);
#147=EDGE_CURVE('',#195,#189,#227,.T.);
#148=EDGE_CURVE('',#196,#196,#24,.F.);
#149=EDGE_CURVE('',#197,#197,#25,.F.);
#150=EDGE_CURVE('',#198,#198,#26,.F.);
#151=EDGE_CURVE('',#199,#199,#27,.F.);
#152=EDGE_CURVE('',#180,#200,#228,.T.);
#153=EDGE_CURVE('',#183,#201,#229,.T.);
#154=EDGE_CURVE('',#201,#202,#230,.T.);
#155=EDGE_CURVE('',#203,#202,#231,.T.);
#156=EDGE_CURVE('',#204,#203,#232,.T.);
#157=EDGE_CURVE('',#200,#204,#233,.T.);
#158=EDGE_CURVE('',#202,#191,#234,.T.);
#159=EDGE_CURVE('',#201,#192,#235,.T.);
#160=EDGE_CURVE('',#200,#195,#236,.T.);
#161=EDGE_CURVE('',#205,#204,#237,.T.);
#162=EDGE_CURVE('',#205,#206,#238,.T.);
#163=EDGE_CURVE('',#206,#189,#239,.T.);
#164=EDGE_CURVE('',#207,#203,#240,.T.);
#165=EDGE_CURVE('',#205,#207,#241,.T.);
#166=EDGE_CURVE('',#206,#179,#242,.T.);
#167=EDGE_CURVE('',#207,#176,#243,.T.);
#168=EDGE_CURVE('',#208,#208,#28,.T.);
#169=EDGE_CURVE('',#209,#209,#29,.T.);
#170=EDGE_CURVE('',#210,#210,#30,.T.);
#171=EDGE_CURVE('',#211,#211,#31,.T.);
#172=EDGE_CURVE('',#190,#177,#244,.F.);
#173=EDGE_CURVE('',#178,#188,#245,.F.);
#174=EDGE_CURVE('',#182,#193,#246,.T.);
#175=EDGE_CURVE('',#194,#181,#247,.T.);
#176=VERTEX_POINT('',#552);
#177=VERTEX_POINT('',#553);
#178=VERTEX_POINT('',#555);
#179=VERTEX_POINT('',#557);
#180=VERTEX_POINT('',#561);
#181=VERTEX_POINT('',#562);
#182=VERTEX_POINT('',#564);
#183=VERTEX_POINT('',#566);
#184=VERTEX_POINT('',#570);
#185=VERTEX_POINT('',#572);
#186=VERTEX_POINT('',#574);
#187=VERTEX_POINT('',#576);
#188=VERTEX_POINT('',#578);
#189=VERTEX_POINT('',#579);
#190=VERTEX_POINT('',#581);
#191=VERTEX_POINT('',#583);
#192=VERTEX_POINT('',#585);
#193=VERTEX_POINT('',#587);
#194=VERTEX_POINT('',#589);
#195=VERTEX_POINT('',#591);
#196=VERTEX_POINT('',#595);
#197=VERTEX_POINT('',#597);
#198=VERTEX_POINT('',#599);
#199=VERTEX_POINT('',#601);
#200=VERTEX_POINT('',#603);
#201=VERTEX_POINT('',#605);
#202=VERTEX_POINT('',#607);
#203=VERTEX_POINT('',#609);
#204=VERTEX_POINT('',#611);
#205=VERTEX_POINT('',#619);
#206=VERTEX_POINT('',#621);
#207=VERTEX_POINT('',#625);
#208=VERTEX_POINT('',#632);
#209=VERTEX_POINT('',#636);
#210=VERTEX_POINT('',#640);
#211=VERTEX_POINT('',#644);
#212=LINE('',#551,#248);
#213=LINE('',#554,#249);
#214=LINE('',#556,#250);
#215=LINE('',#558,#251);
#216=LINE('',#560,#252);
#217=LINE('',#563,#253);
#218=LINE('',#565,#254);
#219=LINE('',#567,#255);
#220=LINE('',#577,#256);
#221=LINE('',#580,#257);
#222=LINE('',#582,#258);
#223=LINE('',#584,#259);
#224=LINE('',#586,#260);
#225=LINE('',#588,#261);
#226=LINE('',#590,#262);
#227=LINE('',#592,#263);
#228=LINE('',#602,#264);
#229=LINE('',#604,#265);
#230=LINE('',#606,#266);
#231=LINE('',#608,#267);
#232=LINE('',#610,#268);
#233=LINE('',#612,#269);
#234=LINE('',#614,#270);
#235=LINE('',#615,#271);
#236=LINE('',#617,#272);
#237=LINE('',#618,#273);
#238=LINE('',#620,#274);
#239=LINE('',#622,#275);
#240=LINE('',#624,#276);
#241=LINE('',#626,#277);
#242=LINE('',#628,#278);
#243=LINE('',#629,#279);
#244=LINE('',#647,#280);
#245=LINE('',#649,#281);
#246=LINE('',#651,#282);
#247=LINE('',#653,#283);
#248=VECTOR('',#447,1.);
#249=VECTOR('',#448,1.);
#250=VECTOR('',#449,1.);
#251=VECTOR('',#450,1.);
#252=VECTOR('',#453,1.);
#253=VECTOR('',#454,1.);
#254=VECTOR('',#455,1.);
#255=VECTOR('',#456,1.);
#256=VECTOR('',#467,1.);
#257=VECTOR('',#468,1.);
#258=VECTOR('',#469,1.);
#259=VECTOR('',#470,1.);
#260=VECTOR('',#471,1.);
#261=VECTOR('',#472,1.);
#262=VECTOR('',#473,1.);
#263=VECTOR('',#474,1.);
#264=VECTOR('',#485,1.);
#265=VECTOR('',#486,1.);
#266=VECTOR('',#487,1.);
#267=VECTOR('',#488,1.);
#268=VECTOR('',#489,1.);
#269=VECTOR('',#490,1.);
#270=VECTOR('',#493,1.);
#271=VECTOR('',#494,1.);
#272=VECTOR('',#497,1.);
#273=VECTOR('',#498,1.);
#274=VECTOR('',#499,1.);
#275=VECTOR('',#500,1.);
#276=VECTOR('',#503,1.);
#277=VECTOR('',#504,1.);
#278=VECTOR('',#507,1.);
#279=VECTOR('',#508,1.);
#280=VECTOR('',#535,1.);
#281=VECTOR('',#538,1.);
#282=VECTOR('',#541,1.);
#283=VECTOR('',#544,1.);
#284=EDGE_LOOP('',(#32,#33,#34,#35));
#285=EDGE_LOOP('',(#36,#37,#38,#39));
#286=EDGE_LOOP('',(#40));
#287=EDGE_LOOP('',(#41));
#288=EDGE_LOOP('',(#42));
#289=EDGE_LOOP('',(#43));
#290=EDGE_LOOP('',(#44,#45,#46,#47,#48,#49,#50,#51));
#291=EDGE_LOOP('',(#52));
#292=EDGE_LOOP('',(#53));
#293=EDGE_LOOP('',(#54));
#294=EDGE_LOOP('',(#55));
#295=EDGE_LOOP('',(#56,#57,#58,#59,#60,#61,#62));
#296=EDGE_LOOP('',(#63,#64,#65,#66));
#297=EDGE_LOOP('',(#67,#68,#69,#70,#71,#72));
#298=EDGE_LOOP('',(#73,#74,#75,#76));
#299=EDGE_LOOP('',(#77,#78,#79,#80,#81));
#300=EDGE_LOOP('',(#82));
#301=EDGE_LOOP('',(#83));
#302=EDGE_LOOP('',(#84));
#303=EDGE_LOOP('',(#85));
#304=EDGE_LOOP('',(#86));
#305=EDGE_LOOP('',(#87));
#306=EDGE_LOOP('',(#88));
#307=EDGE_LOOP('',(#89));
#308=EDGE_LOOP('',(#90));
#309=EDGE_LOOP('',(#91));
#310=EDGE_LOOP('',(#92));
#311=EDGE_LOOP('',(#93));
#312=EDGE_LOOP('',(#94));
#313=EDGE_LOOP('',(#95));
#314=EDGE_LOOP('',(#96));
#315=EDGE_LOOP('',(#97));
#316=EDGE_LOOP('',(#98,#99,#100,#101,#102,#103,#104));
#317=EDGE_LOOP('',(#105,#106,#107,#108,#109));
#318=EDGE_LOOP('',(#110,#111,#112,#113,#114));
#319=EDGE_LOOP('',(#115,#116,#117,#118,#119));
#320=EDGE_LOOP('',(#120,#121,#122,#123));
#321=EDGE_LOOP('',(#124,#125,#126,#127));
#322=FACE_BOUND('',#284,.T.);
#323=FACE_BOUND('',#285,.T.);
#324=FACE_BOUND('',#286,.T.);
#325=FACE_BOUND('',#287,.T.);
#326=FACE_BOUND('',#288,.T.);
#327=FACE_BOUND('',#289,.T.);
#328=FACE_BOUND('',#290,.T.);
#329=FACE_BOUND('',#291,.T.);
#330=FACE_BOUND('',#292,.T.);
#331=FACE_BOUND('',#293,.T.);
#332=FACE_BOUND('',#294,.T.);
#333=FACE_BOUND('',#295,.T.);
#334=FACE_BOUND('',#296,.T.);
#335=FACE_BOUND('',#297,.T.);
#336=FACE_BOUND('',#298,.T.);
#337=FACE_BOUND('',#299,.T.);
#338=FACE_BOUND('',#300,.T.);
#339=FACE_BOUND('',#301,.T.);
#340=FACE_BOUND('',#302,.T.);
#341=FACE_BOUND('',#303,.T.);
#342=FACE_BOUND('',#304,.T.);
#343=FACE_BOUND('',#305,.T.);
#344=FACE_BOUND('',#306,.T.);
#345=FACE_BOUND('',#307,.T.);
#346=FACE_BOUND('',#308,.T.);
#347=FACE_BOUND('',#309,.T.);
#348=FACE_BOUND('',#310,.T.);
#349=FACE_BOUND('',#311,.T.);
#350=FACE_BOUND('',#312,.T.);
#351=FACE_BOUND('',#313,.T.);
#352=FACE_BOUND('',#314,.T.);
#353=FACE_BOUND('',#315,.T.);
#354=FACE_BOUND('',#316,.T.);
#355=FACE_BOUND('',#317,.T.);
#356=FACE_BOUND('',#318,.T.);
#357=FACE_BOUND('',#319,.T.);
#358=FACE_BOUND('',#320,.T.);
#359=FACE_BOUND('',#321,.T.);
#360=PLANE('',#409);
#361=PLANE('',#410);
#362=PLANE('',#411);
#363=PLANE('',#416);
#364=PLANE('',#421);
#365=PLANE('',#422);
#366=PLANE('',#423);
#367=PLANE('',#424);
#368=PLANE('',#437);
#369=PLANE('',#438);
#370=PLANE('',#439);
#371=PLANE('',#440);
#372=PLANE('',#441);
#373=PLANE('',#442);
#374=ADVANCED_FACE('',(#322),#360,.T.);
#375=ADVANCED_FACE('',(#323),#361,.F.);
#376=ADVANCED_FACE('',(#324,#325,#326,#327,#328),#362,.T.);
#377=ADVANCED_FACE('',(#329,#330,#331,#332,#333),#363,.F.);
#378=ADVANCED_FACE('',(#334),#364,.T.);
#379=ADVANCED_FACE('',(#335),#365,.F.);
#380=ADVANCED_FACE('',(#336),#366,.F.);
#381=ADVANCED_FACE('',(#337),#367,.T.);
#382=ADVANCED_FACE('',(#338,#339),#16,.F.);
#383=ADVANCED_FACE('',(#340,#341),#12,.F.);
#384=ADVANCED_FACE('',(#342,#343),#17,.F.);
#385=ADVANCED_FACE('',(#344,#345),#13,.F.);
#386=ADVANCED_FACE('',(#346,#347),#18,.F.);
#387=ADVANCED_FACE('',(#348,#349),#14,.F.);
#388=ADVANCED_FACE('',(#350,#351),#15,.F.);
#389=ADVANCED_FACE('',(#352,#353),#19,.F.);
#390=ADVANCED_FACE('',(#354),#368,.T.);
#391=ADVANCED_FACE('',(#355),#369,.F.);
#392=ADVANCED_FACE('',(#356),#370,.F.);
#393=ADVANCED_FACE('',(#357),#371,.T.);
#394=ADVANCED_FACE('',(#358),#372,.F.);
#395=ADVANCED_FACE('',(#359),#373,.T.);
#396=CLOSED_SHELL('',(#374,#375,#376,#377,#378,#379,#380,#381,#382,#383,
#384,#385,#386,#387,#388,#389,#390,#391,#392,#393,#394,#395));
#397=STYLED_ITEM('',(#398),#405);
#398=PRESENTATION_STYLE_ASSIGNMENT((#399));
#399=SURFACE_STYLE_USAGE(.BOTH.,#400);
#400=SURFACE_SIDE_STYLE('',(#401));
#401=SURFACE_STYLE_FILL_AREA(#402);
#402=FILL_AREA_STYLE('',(#403));
#403=FILL_AREA_STYLE_COLOUR('',#404);
#404=COLOUR_RGB('',0.615686274509804,0.811764705882353,0.929411764705882);
#405=MANIFOLD_SOLID_BREP('Main Part',#396);
#406=SHAPE_DEFINITION_REPRESENTATION(#662,#407);
#407=SHAPE_REPRESENTATION('Main Part',(#408),#657);
#408=AXIS2_PLACEMENT_3D('',#549,#443,#444);
#409=AXIS2_PLACEMENT_3D('',#550,#445,#446);
#410=AXIS2_PLACEMENT_3D('',#559,#451,#452);
#411=AXIS2_PLACEMENT_3D('',#568,#457,#458);
#412=AXIS2_PLACEMENT_3D('',#569,#459,#460);
#413=AXIS2_PLACEMENT_3D('',#571,#461,#462);
#414=AXIS2_PLACEMENT_3D('',#573,#463,#464);
#415=AXIS2_PLACEMENT_3D('',#575,#465,#466);
#416=AXIS2_PLACEMENT_3D('',#593,#475,#476);
#417=AXIS2_PLACEMENT_3D('',#594,#477,#478);
#418=AXIS2_PLACEMENT_3D('',#596,#479,#480);
#419=AXIS2_PLACEMENT_3D('',#598,#481,#482);
#420=AXIS2_PLACEMENT_3D('',#600,#483,#484);
#421=AXIS2_PLACEMENT_3D('',#613,#491,#492);
#422=AXIS2_PLACEMENT_3D('',#616,#495,#496);
#423=AXIS2_PLACEMENT_3D('',#623,#501,#502);
#424=AXIS2_PLACEMENT_3D('',#627,#505,#506);
#425=AXIS2_PLACEMENT_3D('',#630,#509,#510);
#426=AXIS2_PLACEMENT_3D('',#631,#511,#512);
#427=AXIS2_PLACEMENT_3D('',#633,#513,#514);
#428=AXIS2_PLACEMENT_3D('',#634,#515,#516);
#429=AXIS2_PLACEMENT_3D('',#635,#517,#518);
#430=AXIS2_PLACEMENT_3D('',#637,#519,#520);
#431=AXIS2_PLACEMENT_3D('',#638,#521,#522);
#432=AXIS2_PLACEMENT_3D('',#639,#523,#524);
#433=AXIS2_PLACEMENT_3D('',#641,#525,#526);
#434=AXIS2_PLACEMENT_3D('',#642,#527,#528);
#435=AXIS2_PLACEMENT_3D('',#643,#529,#530);
#436=AXIS2_PLACEMENT_3D('',#645,#531,#532);
#437=AXIS2_PLACEMENT_3D('',#646,#533,#534);
#438=AXIS2_PLACEMENT_3D('',#648,#536,#537);
#439=AXIS2_PLACEMENT_3D('',#650,#539,#540);
#440=AXIS2_PLACEMENT_3D('',#652,#542,#543);
#441=AXIS2_PLACEMENT_3D('',#654,#545,#546);
#442=AXIS2_PLACEMENT_3D('',#655,#547,#548);
#443=DIRECTION('',(0.,0.,1.));
#444=DIRECTION('',(1.,0.,0.));
#445=DIRECTION('',(1.,0.,0.));
#446=DIRECTION('',(0.,0.,-1.));
#447=DIRECTION('',(0.,0.,-1.));
#448=DIRECTION('',(0.,1.,0.));
#449=DIRECTION('',(0.,0.,-1.));
#450=DIRECTION('',(0.,-1.,0.));
#451=DIRECTION('',(1.,0.,0.));
#452=DIRECTION('',(0.,0.,-1.));
#453=DIRECTION('',(0.,0.,-1.));
#454=DIRECTION('',(0.,-1.,0.));
#455=DIRECTION('',(0.,0.,-1.));
#456=DIRECTION('',(0.,-1.,0.));
#457=DIRECTION('',(0.,0.,-1.));
#458=DIRECTION('',(-1.,0.,0.));
#459=DIRECTION('',(0.,0.,1.));
#460=DIRECTION('',(1.,0.,0.));
#461=DIRECTION('',(0.,0.,1.));
#462=DIRECTION('',(1.,0.,0.));
#463=DIRECTION('',(0.,0.,1.));
#464=DIRECTION('',(1.,0.,0.));
#465=DIRECTION('',(0.,0.,1.));
#466=DIRECTION('',(1.,0.,0.));
#467=DIRECTION('',(-0.64278760968654,0.766044443118978,0.));
#468=DIRECTION('',(0.,-1.,0.));
#469=DIRECTION('',(-0.642787609686539,-0.766044443118978,0.));
#470=DIRECTION('',(1.,0.,0.));
#471=DIRECTION('',(0.642787609686539,-0.766044443118978,0.));
#472=DIRECTION('',(0.,1.,0.));
#473=DIRECTION('',(0.64278760968654,0.766044443118978,0.));
#474=DIRECTION('',(1.,0.,0.));
#475=DIRECTION('',(0.,0.,-1.));
#476=DIRECTION('',(-1.,0.,0.));
#477=DIRECTION('',(0.,0.,-1.));
#478=DIRECTION('',(-1.,0.,0.));
#479=DIRECTION('',(0.,0.,-1.));
#480=DIRECTION('',(-1.,0.,0.));
#481=DIRECTION('',(0.,0.,-1.));
#482=DIRECTION('',(-1.,0.,0.));
#483=DIRECTION('',(0.,0.,-1.));
#484=DIRECTION('',(-1.,0.,0.));
#485=DIRECTION('',(0.64278760968654,0.766044443118978,0.));
#486=DIRECTION('',(0.642787609686539,-0.766044443118978,0.));
#487=DIRECTION('',(1.,0.,0.));
#488=DIRECTION('',(-0.642787609686539,-0.766044443118978,0.));
#489=DIRECTION('',(0.0174524064372836,-0.999847695156391,0.));
#490=DIRECTION('',(1.,0.,0.));
#491=DIRECTION('',(0.,-1.,0.));
#492=DIRECTION('',(1.,0.,0.));
#493=DIRECTION('',(0.,0.,-1.));
#494=DIRECTION('',(0.,0.,-1.));
#495=DIRECTION('',(0.,-1.,0.));
#496=DIRECTION('',(1.,0.,0.));
#497=DIRECTION('',(0.,0.,-1.));
#498=DIRECTION('',(0.,0.,1.));
#499=DIRECTION('',(1.,0.,0.));
#500=DIRECTION('',(0.,0.,-1.));
#501=DIRECTION('',(-0.999847695156391,-0.0174524064372836,0.));
#502=DIRECTION('',(0.0174524064372836,-0.999847695156391,0.));
#503=DIRECTION('',(0.,0.,1.));
#504=DIRECTION('',(0.0174524064372836,-0.999847695156391,0.));
#505=DIRECTION('',(0.,0.,1.));
#506=DIRECTION('',(1.,0.,0.));
#507=DIRECTION('',(0.64278760968654,-0.766044443118978,0.));
#508=DIRECTION('',(0.642787609686539,0.766044443118978,0.));
#509=DIRECTION('',(0.,0.,-1.));
#510=DIRECTION('',(-1.,0.,0.));
#511=DIRECTION('',(0.,0.,1.));
#512=DIRECTION('',(1.,0.,0.));
#513=DIRECTION('',(0.,0.,1.));
#514=DIRECTION('',(1.,0.,0.));
#515=DIRECTION('',(0.,0.,-1.));
#516=DIRECTION('',(-1.,0.,0.));
#517=DIRECTION('',(0.,0.,1.));
#518=DIRECTION('',(1.,0.,0.));
#519=DIRECTION('',(0.,0.,1.));
#520=DIRECTION('',(1.,0.,0.));
#521=DIRECTION('',(0.,0.,-1.));
#522=DIRECTION('',(-1.,0.,0.));
#523=DIRECTION('',(0.,0.,1.));
#524=DIRECTION('',(1.,0.,0.));
#525=DIRECTION('',(0.,0.,1.));
#526=DIRECTION('',(1.,0.,0.));
#527=DIRECTION('',(0.,0.,1.));
#528=DIRECTION('',(1.,0.,0.));
#529=DIRECTION('',(0.,0.,1.));
#530=DIRECTION('',(1.,0.,0.));
#531=DIRECTION('',(0.,0.,-1.));
#532=DIRECTION('',(-1.,0.,0.));
#533=DIRECTION('',(0.766044443118978,-0.642787609686539,0.));
#534=DIRECTION('',(0.642787609686539,0.766044443118978,0.));
#535=DIRECTION('',(-0.540716203060937,-0.644400477571772,-0.540716203060937));
#536=DIRECTION('',(-0.766044443118978,-0.64278760968654,0.));
#537=DIRECTION('',(0.64278760968654,-0.766044443118978,0.));
#538=DIRECTION('',(0.540716203060937,-0.644400477571772,0.540716203060937));
#539=DIRECTION('',(0.766044443118978,0.642787609686539,0.));
#540=DIRECTION('',(-0.642787609686539,0.766044443118978,0.));
#541=DIRECTION('',(0.540716203060937,-0.644400477571772,-0.540716203060937));
#542=DIRECTION('',(-0.766044443118978,0.64278760968654,0.));
#543=DIRECTION('',(-0.64278760968654,-0.766044443118978,0.));
#544=DIRECTION('',(-0.540716203060937,-0.644400477571772,0.540716203060937));
#545=DIRECTION('',(-0.707106781186548,0.,0.707106781186548));
#546=DIRECTION('',(0.,-1.,0.));
#547=DIRECTION('',(-0.707106781186548,0.,-0.707106781186548));
#548=DIRECTION('',(0.,1.,0.));
#549=CARTESIAN_POINT('',(0.,0.,0.));
#550=CARTESIAN_POINT('',(0.0188,0.25,0.0046));
#551=CARTESIAN_POINT('',(0.0188,0.0059587679629711,0.250884630044571));
#552=CARTESIAN_POINT('',(0.0188,0.00595876796297109,0.0037));
#553=CARTESIAN_POINT('',(0.0188,0.0059587679629711,0.002));
#554=CARTESIAN_POINT('',(0.0188,0.25,0.002));
#555=CARTESIAN_POINT('',(0.0188,0.244041232037029,0.002));
#556=CARTESIAN_POINT('',(0.0188,0.244041232037029,0.250884630044571));
#557=CARTESIAN_POINT('',(0.0188,0.244041232037029,0.0037));
#558=CARTESIAN_POINT('',(0.0188,0.25,0.0037));
#559=CARTESIAN_POINT('',(0.,0.25,0.0046));
#560=CARTESIAN_POINT('',(0.,0.244041232037029,0.250884630044571));
#561=CARTESIAN_POINT('',(-3.90312782094781E-18,0.244041232037029,0.0092));
#562=CARTESIAN_POINT('',(0.,0.244041232037029,0.002));
#563=CARTESIAN_POINT('',(0.,0.00595876796297115,0.002));
#564=CARTESIAN_POINT('',(0.,0.00595876796297115,0.002));
#565=CARTESIAN_POINT('',(0.,0.00595876796297115,0.250884630044571));
#566=CARTESIAN_POINT('',(0.,0.00595876796297115,0.0092));
#567=CARTESIAN_POINT('',(0.,0.25,0.0092));
#568=CARTESIAN_POINT('',(0.0094,0.25,0.));
#569=CARTESIAN_POINT('',(0.0094,0.2,0.));
#570=CARTESIAN_POINT('',(0.01332,0.2,0.));
#571=CARTESIAN_POINT('',(0.0094,0.15,0.));
#572=CARTESIAN_POINT('',(0.01332,0.15,0.));
#573=CARTESIAN_POINT('',(0.0094,0.1,0.));
#574=CARTESIAN_POINT('',(0.01332,0.1,0.));
#575=CARTESIAN_POINT('',(0.0094,0.05,0.));
#576=CARTESIAN_POINT('',(0.01332,0.05,0.));
#577=CARTESIAN_POINT('',(0.0163,0.247020616018514,0.));
#578=CARTESIAN_POINT('',(0.0168,0.246424739222217,0.));
#579=CARTESIAN_POINT('',(0.0138,0.25,0.));
#580=CARTESIAN_POINT('',(0.0168,0.25,0.));
#581=CARTESIAN_POINT('',(0.0168,0.00357526077778263,0.));
#582=CARTESIAN_POINT('',(0.0163,0.00297938398148552,0.));
#583=CARTESIAN_POINT('',(0.0138,0.,0.));
#584=CARTESIAN_POINT('',(0.0094,0.,0.));
#585=CARTESIAN_POINT('',(0.005,0.,0.));
#586=CARTESIAN_POINT('',(0.0025,0.00297938398148552,0.));
#587=CARTESIAN_POINT('',(0.002,0.00357526077778263,0.));
#588=CARTESIAN_POINT('',(0.002,0.244041232037029,0.));
#589=CARTESIAN_POINT('',(0.002,0.246424739222217,0.));
#590=CARTESIAN_POINT('',(0.0025,0.247020616018514,0.));
#591=CARTESIAN_POINT('',(0.005,0.25,0.));
#592=CARTESIAN_POINT('',(0.0094,0.25,0.));
#593=CARTESIAN_POINT('',(0.0094,0.25,0.0092));
#594=CARTESIAN_POINT('',(0.0094,0.05,0.0092));
#595=CARTESIAN_POINT('',(0.007525,0.05,0.0092));
#596=CARTESIAN_POINT('',(0.0094,0.1,0.0092));
#597=CARTESIAN_POINT('',(0.007525,0.1,0.0092));
#598=CARTESIAN_POINT('',(0.0094,0.15,0.0092));
#599=CARTESIAN_POINT('',(0.007525,0.15,0.0092));
#600=CARTESIAN_POINT('',(0.0094,0.2,0.0092));
#601=CARTESIAN_POINT('',(0.007525,0.2,0.0092));
#602=CARTESIAN_POINT('',(0.00681797400913275,0.252166577056627,0.0092));
#603=CARTESIAN_POINT('',(0.005,0.25,0.0092));
#604=CARTESIAN_POINT('',(-0.116282995117393,0.144539445151739,0.0092));
#605=CARTESIAN_POINT('',(0.005,0.,0.0092));
#606=CARTESIAN_POINT('',(0.0094,0.,0.0092));
#607=CARTESIAN_POINT('',(0.0138,0.,0.0092));
#608=CARTESIAN_POINT('',(0.135082995117393,0.144539445151739,0.0092));
#609=CARTESIAN_POINT('',(0.0156284010480841,0.00217900351775724,0.0092));
#610=CARTESIAN_POINT('',(0.0134845830432269,0.124998254759356,0.0092));
#611=CARTESIAN_POINT('',(0.011302669463911,0.25,0.0092));
#612=CARTESIAN_POINT('',(0.0094,0.25,0.0092));
#613=CARTESIAN_POINT('',(0.00945,0.,0.0046));
#614=CARTESIAN_POINT('',(0.0138,0.,0.250884630044571));
#615=CARTESIAN_POINT('',(0.005,0.,0.250884630044571));
#616=CARTESIAN_POINT('',(0.00945,0.25,0.0046));
#617=CARTESIAN_POINT('',(0.005,0.25,0.250884630044571));
#618=CARTESIAN_POINT('',(0.011302669463911,0.25,0.0037));
#619=CARTESIAN_POINT('',(0.011302669463911,0.25,0.0037));
#620=CARTESIAN_POINT('',(0.0094,0.25,0.0037));
#621=CARTESIAN_POINT('',(0.0138,0.25,0.0037));
#622=CARTESIAN_POINT('',(0.0138,0.25,0.250884630044571));
#623=CARTESIAN_POINT('',(0.0134845830432269,0.124998254759356,0.0037));
#624=CARTESIAN_POINT('',(0.0156284010480841,0.00217900351775725,0.0037));
#625=CARTESIAN_POINT('',(0.0156284010480841,0.00217900351775722,0.0037));
#626=CARTESIAN_POINT('',(0.0134833084804028,0.125071274414647,0.0037));
#627=CARTESIAN_POINT('',(0.0094,0.125,0.0037));
#628=CARTESIAN_POINT('',(0.0735325105541303,0.178813565952444,0.0037));
#629=CARTESIAN_POINT('',(0.0735325105541303,0.0711864340475563,0.0037));
#630=CARTESIAN_POINT('',(0.0094,0.2,0.));
#631=CARTESIAN_POINT('',(0.0094,0.2,0.002045));
#632=CARTESIAN_POINT('',(0.011275,0.2,0.002045));
#633=CARTESIAN_POINT('',(0.0094,0.2,0.));
#634=CARTESIAN_POINT('',(0.0094,0.15,0.));
#635=CARTESIAN_POINT('',(0.0094,0.15,0.002045));
#636=CARTESIAN_POINT('',(0.011275,0.15,0.002045));
#637=CARTESIAN_POINT('',(0.0094,0.15,0.));
#638=CARTESIAN_POINT('',(0.0094,0.1,0.));
#639=CARTESIAN_POINT('',(0.0094,0.1,0.002045));
#640=CARTESIAN_POINT('',(0.011275,0.1,0.002045));
#641=CARTESIAN_POINT('',(0.0094,0.1,0.));
#642=CARTESIAN_POINT('',(0.0094,0.05,0.));
#643=CARTESIAN_POINT('',(0.0094,0.05,0.002045));
#644=CARTESIAN_POINT('',(0.011275,0.05,0.002045));
#645=CARTESIAN_POINT('',(0.0094,0.05,0.));
#646=CARTESIAN_POINT('',(0.0163,0.00297938398148552,0.250884630044571));
#647=CARTESIAN_POINT('',(0.0897983329047756,0.0905712862704371,0.0729983329047756));
#648=CARTESIAN_POINT('',(0.0163,0.247020616018514,0.250884630044571));
#649=CARTESIAN_POINT('',(0.0155542440735158,0.2479093733231,-0.00124575592648418));
#650=CARTESIAN_POINT('',(0.0025,0.00297938398148552,0.250884630044571));
#651=CARTESIAN_POINT('',(-0.0850331849933421,0.107297371668514,0.0870331849933421));
#652=CARTESIAN_POINT('',(0.0025,0.247020616018514,0.250884630044571));
#653=CARTESIAN_POINT('',(-0.0709983329047756,0.159428713729563,0.0729983329047756));
#654=CARTESIAN_POINT('',(0.0168,0.25,0.));
#655=CARTESIAN_POINT('',(0.,0.25,0.002));
#656=MECHANICAL_DESIGN_GEOMETRIC_PRESENTATION_REPRESENTATION('',(#397),
#657);
#657=(
GEOMETRIC_REPRESENTATION_CONTEXT(3)
GLOBAL_UNCERTAINTY_ASSIGNED_CONTEXT((#658))
GLOBAL_UNIT_ASSIGNED_CONTEXT((#661,#660,#659))
REPRESENTATION_CONTEXT('Main Part','TOP_LEVEL_ASSEMBLY_PART')
);
#658=UNCERTAINTY_MEASURE_WITH_UNIT(LENGTH_MEASURE(1.E-8),#661,
'DISTANCE_ACCURACY_VALUE','Maximum Tolerance applied to model');
#659=(
NAMED_UNIT(*)
SI_UNIT($,.STERADIAN.)
SOLID_ANGLE_UNIT()
);
#660=(
NAMED_UNIT(*)
PLANE_ANGLE_UNIT()
SI_UNIT($,.RADIAN.)
);
#661=(
LENGTH_UNIT()
NAMED_UNIT(*)
SI_UNIT($,.METRE.)
);
#662=PRODUCT_DEFINITION_SHAPE('','',#663);
#663=PRODUCT_DEFINITION('','',#665,#664);
#664=PRODUCT_DEFINITION_CONTEXT('',#671,'design');
#665=PRODUCT_DEFINITION_FORMATION_WITH_SPECIFIED_SOURCE('','',#667,
 .NOT_KNOWN.);
#666=PRODUCT_RELATED_PRODUCT_CATEGORY('','',(#667));
#667=PRODUCT('Main Part','Main Part','Main Part',(#669));
#668=PRODUCT_CATEGORY('','');
#669=PRODUCT_CONTEXT('',#671,'mechanical');
#670=APPLICATION_PROTOCOL_DEFINITION('international standard',
'ap242_managed_model_based_3d_engineering',2011,#671);
#671=APPLICATION_CONTEXT('managed model based 3d engineering');
ENDSEC;
END-ISO-10303-21;
