ISO-10303-21;
HEADER;
/* Generated by software containing ST-Developer
 * from STEP Tools, Inc. (www.steptools.com) 
 */
/* OPTION: using custom renumber hook */

FILE_DESCRIPTION(
/* description */ ('STEP AP242',
'CAx-IF Rec.Pracs.---Representation and Presentation of Product Manufa
cturing Information (PMI)---4.0---2014-10-13',
'CAx-IF Rec.Pracs.---3D Tessellated Geometry---0.4---2014-09-14','2;1'),

/* implementation_level */ '2;1');

FILE_NAME(
/* name */ '687a9dcca497fa486331f9a6',
/* time_stamp */ '2025-07-18T19:17:33Z',
/* author */ (''),
/* organization */ (''),
/* preprocessor_version */ 'ST-DEVELOPER v20',
/* originating_system */ 'ONSHAPE BY PTC INC, 1.201',
/* authorisation */ '  ');

FILE_SCHEMA (('AP242_MANAGED_MODEL_BASED_3D_ENGINEERING_MIM_LF { 1 0 10303 442 1 1 4 }'));
ENDSEC;

DATA;
#10=SHAPE_REPRESENTATION_RELATIONSHIP('','',#136,#11);
#11=ADVANCED_BREP_SHAPE_REPRESENTATION('',(#134),#210);
#12=ORIENTED_EDGE('',*,*,#42,.F.);
#13=ORIENTED_EDGE('',*,*,#43,.T.);
#14=ORIENTED_EDGE('',*,*,#44,.F.);
#15=ORIENTED_EDGE('',*,*,#45,.F.);
#16=ORIENTED_EDGE('',*,*,#46,.F.);
#17=ORIENTED_EDGE('',*,*,#47,.F.);
#18=ORIENTED_EDGE('',*,*,#48,.T.);
#19=ORIENTED_EDGE('',*,*,#49,.F.);
#20=ORIENTED_EDGE('',*,*,#47,.T.);
#21=ORIENTED_EDGE('',*,*,#50,.T.);
#22=ORIENTED_EDGE('',*,*,#42,.T.);
#23=ORIENTED_EDGE('',*,*,#51,.F.);
#24=ORIENTED_EDGE('',*,*,#52,.F.);
#25=ORIENTED_EDGE('',*,*,#53,.F.);
#26=ORIENTED_EDGE('',*,*,#51,.T.);
#27=ORIENTED_EDGE('',*,*,#45,.T.);
#28=ORIENTED_EDGE('',*,*,#54,.T.);
#29=ORIENTED_EDGE('',*,*,#44,.T.);
#30=ORIENTED_EDGE('',*,*,#55,.T.);
#31=ORIENTED_EDGE('',*,*,#49,.T.);
#32=ORIENTED_EDGE('',*,*,#56,.F.);
#33=ORIENTED_EDGE('',*,*,#54,.F.);
#34=ORIENTED_EDGE('',*,*,#52,.T.);
#35=ORIENTED_EDGE('',*,*,#53,.T.);
#36=ORIENTED_EDGE('',*,*,#56,.T.);
#37=ORIENTED_EDGE('',*,*,#48,.F.);
#38=ORIENTED_EDGE('',*,*,#46,.T.);
#39=ORIENTED_EDGE('',*,*,#55,.F.);
#40=ORIENTED_EDGE('',*,*,#43,.F.);
#41=ORIENTED_EDGE('',*,*,#50,.F.);
#42=EDGE_CURVE('',#57,#58,#67,.T.);
#43=EDGE_CURVE('',#57,#59,#68,.T.);
#44=EDGE_CURVE('',#60,#59,#69,.T.);
#45=EDGE_CURVE('',#58,#60,#70,.T.);
#46=EDGE_CURVE('',#61,#62,#71,.T.);
#47=EDGE_CURVE('',#63,#61,#72,.T.);
#48=EDGE_CURVE('',#63,#64,#73,.T.);
#49=EDGE_CURVE('',#62,#64,#74,.T.);
#50=EDGE_CURVE('',#61,#57,#75,.T.);
#51=EDGE_CURVE('',#65,#58,#76,.T.);
#52=EDGE_CURVE('',#63,#65,#77,.T.);
#53=EDGE_CURVE('',#65,#66,#78,.T.);
#54=EDGE_CURVE('',#60,#66,#79,.T.);
#55=EDGE_CURVE('',#59,#62,#80,.T.);
#56=EDGE_CURVE('',#66,#64,#81,.T.);
#57=VERTEX_POINT('',#179);
#58=VERTEX_POINT('',#180);
#59=VERTEX_POINT('',#182);
#60=VERTEX_POINT('',#184);
#61=VERTEX_POINT('',#188);
#62=VERTEX_POINT('',#189);
#63=VERTEX_POINT('',#191);
#64=VERTEX_POINT('',#193);
#65=VERTEX_POINT('',#198);
#66=VERTEX_POINT('',#202);
#67=LINE('',#178,#82);
#68=LINE('',#181,#83);
#69=LINE('',#183,#84);
#70=LINE('',#185,#85);
#71=LINE('',#187,#86);
#72=LINE('',#190,#87);
#73=LINE('',#192,#88);
#74=LINE('',#194,#89);
#75=LINE('',#196,#90);
#76=LINE('',#197,#91);
#77=LINE('',#199,#92);
#78=LINE('',#201,#93);
#79=LINE('',#203,#94);
#80=LINE('',#205,#95);
#81=LINE('',#206,#96);
#82=VECTOR('',#149,1.);
#83=VECTOR('',#150,1.);
#84=VECTOR('',#151,1.);
#85=VECTOR('',#152,1.);
#86=VECTOR('',#155,1.);
#87=VECTOR('',#156,1.);
#88=VECTOR('',#157,1.);
#89=VECTOR('',#158,1.);
#90=VECTOR('',#161,1.);
#91=VECTOR('',#162,1.);
#92=VECTOR('',#163,1.);
#93=VECTOR('',#166,1.);
#94=VECTOR('',#167,1.);
#95=VECTOR('',#170,1.);
#96=VECTOR('',#171,1.);
#97=EDGE_LOOP('',(#12,#13,#14,#15));
#98=EDGE_LOOP('',(#16,#17,#18,#19));
#99=EDGE_LOOP('',(#20,#21,#22,#23,#24));
#100=EDGE_LOOP('',(#25,#26,#27,#28));
#101=EDGE_LOOP('',(#29,#30,#31,#32,#33));
#102=EDGE_LOOP('',(#34,#35,#36,#37));
#103=EDGE_LOOP('',(#38,#39,#40,#41));
#104=FACE_BOUND('',#97,.T.);
#105=FACE_BOUND('',#98,.T.);
#106=FACE_BOUND('',#99,.T.);
#107=FACE_BOUND('',#100,.T.);
#108=FACE_BOUND('',#101,.T.);
#109=FACE_BOUND('',#102,.T.);
#110=FACE_BOUND('',#103,.T.);
#111=PLANE('',#138);
#112=PLANE('',#139);
#113=PLANE('',#140);
#114=PLANE('',#141);
#115=PLANE('',#142);
#116=PLANE('',#143);
#117=PLANE('',#144);
#118=ADVANCED_FACE('',(#104),#111,.T.);
#119=ADVANCED_FACE('',(#105),#112,.T.);
#120=ADVANCED_FACE('',(#106),#113,.F.);
#121=ADVANCED_FACE('',(#107),#114,.F.);
#122=ADVANCED_FACE('',(#108),#115,.F.);
#123=ADVANCED_FACE('',(#109),#116,.T.);
#124=ADVANCED_FACE('',(#110),#117,.F.);
#125=CLOSED_SHELL('',(#118,#119,#120,#121,#122,#123,#124));
#126=STYLED_ITEM('',(#127),#134);
#127=PRESENTATION_STYLE_ASSIGNMENT((#128));
#128=SURFACE_STYLE_USAGE(.BOTH.,#129);
#129=SURFACE_SIDE_STYLE('',(#130));
#130=SURFACE_STYLE_FILL_AREA(#131);
#131=FILL_AREA_STYLE('',(#132));
#132=FILL_AREA_STYLE_COLOUR('',#133);
#133=COLOUR_RGB('',0.647058823529412,0.647058823529412,0.647058823529412);
#134=MANIFOLD_SOLID_BREP('Wedge',#125);
#135=SHAPE_DEFINITION_REPRESENTATION(#215,#136);
#136=SHAPE_REPRESENTATION('Wedge',(#137),#210);
#137=AXIS2_PLACEMENT_3D('',#176,#145,#146);
#138=AXIS2_PLACEMENT_3D('',#177,#147,#148);
#139=AXIS2_PLACEMENT_3D('',#186,#153,#154);
#140=AXIS2_PLACEMENT_3D('',#195,#159,#160);
#141=AXIS2_PLACEMENT_3D('',#200,#164,#165);
#142=AXIS2_PLACEMENT_3D('',#204,#168,#169);
#143=AXIS2_PLACEMENT_3D('',#207,#172,#173);
#144=AXIS2_PLACEMENT_3D('',#208,#174,#175);
#145=DIRECTION('',(0.,0.,1.));
#146=DIRECTION('',(1.,0.,0.));
#147=DIRECTION('',(0.,1.,0.));
#148=DIRECTION('',(0.,0.,1.));
#149=DIRECTION('',(-1.,0.,0.));
#150=DIRECTION('',(0.,0.,-1.));
#151=DIRECTION('',(1.,0.,0.));
#152=DIRECTION('',(0.,0.,-1.));
#153=DIRECTION('',(1.,0.,0.));
#154=DIRECTION('',(0.,0.,-1.));
#155=DIRECTION('',(0.,0.,-1.));
#156=DIRECTION('',(0.,1.,0.));
#157=DIRECTION('',(0.,0.,-1.));
#158=DIRECTION('',(0.,-1.,0.));
#159=DIRECTION('',(0.,0.,-1.));
#160=DIRECTION('',(-1.,0.,0.));
#161=DIRECTION('',(-0.64278760968654,0.766044443118978,0.));
#162=DIRECTION('',(-0.0174524064372835,0.999847695156391,0.));
#163=DIRECTION('',(-0.642787609686539,-0.766044443118978,0.));
#164=DIRECTION('',(0.999847695156391,0.0174524064372835,0.));
#165=DIRECTION('',(-0.0174524064372835,0.999847695156391,0.));
#166=DIRECTION('',(0.,0.,-1.));
#167=DIRECTION('',(0.0174524064372835,-0.999847695156391,0.));
#168=DIRECTION('',(0.,0.,1.));
#169=DIRECTION('',(1.,0.,0.));
#170=DIRECTION('',(0.64278760968654,-0.766044443118978,0.));
#171=DIRECTION('',(0.642787609686539,0.766044443118978,0.));
#172=DIRECTION('',(0.766044443118978,-0.642787609686539,0.));
#173=DIRECTION('',(0.642787609686539,0.766044443118978,0.));
#174=DIRECTION('',(-0.766044443118978,-0.64278760968654,0.));
#175=DIRECTION('',(0.64278760968654,-0.766044443118978,0.));
#176=CARTESIAN_POINT('',(0.,0.,0.));
#177=CARTESIAN_POINT('',(0.0094,0.25,0.009202));
#178=CARTESIAN_POINT('',(0.0094,0.25,0.0092));
#179=CARTESIAN_POINT('',(0.0138,0.25,0.0092));
#180=CARTESIAN_POINT('',(0.0114026846967153,0.25,0.0092));
#181=CARTESIAN_POINT('',(0.0138,0.25,0.250884630044571));
#182=CARTESIAN_POINT('',(0.0138,0.25,0.0037));
#183=CARTESIAN_POINT('',(0.0094,0.25,0.0037));
#184=CARTESIAN_POINT('',(0.0114026846967153,0.25,0.0037));
#185=CARTESIAN_POINT('',(0.0114026846967153,0.25,0.009202));
#186=CARTESIAN_POINT('',(0.0188,0.25,0.009202));
#187=CARTESIAN_POINT('',(0.0188,0.244041232037029,0.250884630044571));
#188=CARTESIAN_POINT('',(0.0188,0.244041232037029,0.0092));
#189=CARTESIAN_POINT('',(0.0188,0.244041232037029,0.0037));
#190=CARTESIAN_POINT('',(0.0188,0.25,0.0092));
#191=CARTESIAN_POINT('',(0.0188,0.0137373870972731,0.0092));
#192=CARTESIAN_POINT('',(0.0188,0.0137373870972731,0.009202));
#193=CARTESIAN_POINT('',(0.0188,0.0137373870972731,0.0037));
#194=CARTESIAN_POINT('',(0.0188,0.25,0.0037));
#195=CARTESIAN_POINT('',(0.0094,0.25,0.0092));
#196=CARTESIAN_POINT('',(0.0119820259908672,0.252166577056627,0.0092));
#197=CARTESIAN_POINT('',(0.0135845678127426,0.125,0.0092));
#198=CARTESIAN_POINT('',(0.0155933687259879,0.00991587275634416,0.0092));
#199=CARTESIAN_POINT('',(0.131252772901798,0.147753383200172,0.0092));
#200=CARTESIAN_POINT('',(0.0135845678127426,0.125,0.009202));
#201=CARTESIAN_POINT('',(0.0155933687259879,0.00991587275634416,0.009202));
#202=CARTESIAN_POINT('',(0.0155933687259879,0.00991587275634415,0.0037));
#203=CARTESIAN_POINT('',(0.0135845678127426,0.125,0.0037));
#204=CARTESIAN_POINT('',(0.0094,0.125,0.0037));
#205=CARTESIAN_POINT('',(0.0735325105541303,0.178813565952444,0.0037));
#206=CARTESIAN_POINT('',(0.0697022883385354,0.074400372095989,0.0037));
#207=CARTESIAN_POINT('',(0.0124697777844051,0.00619332202991822,0.250884630044571));
#208=CARTESIAN_POINT('',(0.0163,0.247020616018514,0.250884630044571));
#209=MECHANICAL_DESIGN_GEOMETRIC_PRESENTATION_REPRESENTATION('',(#126),
#210);
#210=(
GEOMETRIC_REPRESENTATION_CONTEXT(3)
GLOBAL_UNCERTAINTY_ASSIGNED_CONTEXT((#211))
GLOBAL_UNIT_ASSIGNED_CONTEXT((#214,#213,#212))
REPRESENTATION_CONTEXT('Wedge','TOP_LEVEL_ASSEMBLY_PART')
);
#211=UNCERTAINTY_MEASURE_WITH_UNIT(LENGTH_MEASURE(1.E-8),#214,
'DISTANCE_ACCURACY_VALUE','Maximum Tolerance applied to model');
#212=(
NAMED_UNIT(*)
SI_UNIT($,.STERADIAN.)
SOLID_ANGLE_UNIT()
);
#213=(
NAMED_UNIT(*)
PLANE_ANGLE_UNIT()
SI_UNIT($,.RADIAN.)
);
#214=(
LENGTH_UNIT()
NAMED_UNIT(*)
SI_UNIT($,.METRE.)
);
#215=PRODUCT_DEFINITION_SHAPE('','',#216);
#216=PRODUCT_DEFINITION('','',#218,#217);
#217=PRODUCT_DEFINITION_CONTEXT('',#224,'design');
#218=PRODUCT_DEFINITION_FORMATION_WITH_SPECIFIED_SOURCE('','',#220,
 .NOT_KNOWN.);
#219=PRODUCT_RELATED_PRODUCT_CATEGORY('','',(#220));
#220=PRODUCT('Wedge','Wedge','Wedge',(#222));
#221=PRODUCT_CATEGORY('','');
#222=PRODUCT_CONTEXT('',#224,'mechanical');
#223=APPLICATION_PROTOCOL_DEFINITION('international standard',
'ap242_managed_model_based_3d_engineering',2011,#224);
#224=APPLICATION_CONTEXT('managed model based 3d engineering');
ENDSEC;
END-ISO-10303-21;
