solid desk_tabletop_reference
  facet normal 0 0 -1
    outer loop
      vertex -5 -5 0
      vertex 5 5 0
      vertex 5 -5 0
    endloop
  endfacet
  facet normal 0 0 -1
    outer loop
      vertex -5 -5 0
      vertex -5 5 0
      vertex 5 5 0
    endloop
  endfacet
  facet normal 0 0 1
    outer loop
      vertex -5 -5 1
      vertex 5 -5 1
      vertex 5 5 1
    endloop
  endfacet
  facet normal 0 0 1
    outer loop
      vertex -5 -5 1
      vertex 5 5 1
      vertex -5 5 1
    endloop
  endfacet
  facet normal 0 -1 0
    outer loop
      vertex -5 -5 0
      vertex 5 -5 0
      vertex 5 -5 1
    endloop
  endfacet
  facet normal 0 -1 0
    outer loop
      vertex -5 -5 0
      vertex 5 -5 1
      vertex -5 -5 1
    endloop
  endfacet
  facet normal 1 0 0
    outer loop
      vertex 5 -5 0
      vertex 5 5 0
      vertex 5 5 1
    endloop
  endfacet
  facet normal 1 0 0
    outer loop
      vertex 5 -5 0
      vertex 5 5 1
      vertex 5 -5 1
    endloop
  endfacet
  facet normal 0 1 0
    outer loop
      vertex 5 5 0
      vertex -5 5 0
      vertex -5 5 1
    endloop
  endfacet
  facet normal 0 1 0
    outer loop
      vertex 5 5 0
      vertex -5 5 1
      vertex 5 5 1
    endloop
  endfacet
  facet normal -1 0 0
    outer loop
      vertex -5 5 0
      vertex -5 -5 0
      vertex -5 -5 1
    endloop
  endfacet
  facet normal -1 0 0
    outer loop
      vertex -5 5 0
      vertex -5 -5 1
      vertex -5 5 1
    endloop
  endfacet
endsolid desk_tabletop_reference
